<!-- src/assets/react.svg -->
<svg xmlns="http://www.w3.org/2000/svg" viewBox="0 0 841.9 595.3">
  <g fill="#61DAFB">
    <path d="M666.3 296.5c0 35.7-13.6 67.8-35.7 92-22.1 24.2-52.7 39.4-87 39.4-25.3 0-48.9-8.5-68.2-22.7-7.2-5.3-13.7-11.2-19.7-17.5-6-6.3-11.2-13.3-15.8-20.7-4.6-7.4-8.5-15.2-11.8-23.3-3.3-8.1-6.2-16.4-8.6-24.9-2.4-8.5-4.5-17.1-6.2-25.8-1.7-8.7-3-17.4-4.1-26.2-1.1-8.8-1.9-17.6-2.3-26.4-.4-8.8-.7-17.6-.9-26.4-.2-8.8-.3-17.6-.3-26.3 0-15.2.3-30.3 1-45.3.7-15 1.6-30 2.9-44.9 1.3-14.9 2.9-29.8 4.8-44.6 1.9-14.8 4.2-29.6 6.9-44.4 2.7-14.8 5.9-29.5 9.6-44.1 3.7-14.6 7.8-29.1 12.5-43.5 4.7-14.4 9.9-28.6 15.7-42.7 5.8-14.1 12-28.1 18.7-41.8 6.7-13.7 13.9-27.2 21.5-40.5 7.6-13.3 15.6-26.4 24.1-39.1 8.5-12.7 17.5-24.9 26.9-36.8 9.4-11.9 19.2-23.3 29.5-34.2 10.3-10.9 20.9-20.9 31.8-30.1 10.9-9.2 22.2-17.5 33.7-24.8 11.5-7.3 23.2-13.7 35.1-19.2 11.9-5.5 23.9-10 35.9-13.5 12-3.5 24.1-6 36.2-7.4 12.1-1.4 24.2-2 36.3-2 27.6 0 55.2 4.3 82.6 12.9 27.4 8.6 54.3 20.7 80.3 36.2 26 15.5 51 34.2 74.5 55.9 23.5 21.7 45.3 46.5 64.8 73.8 19.5 27.3 36.6 56.9 50.7 88.2 14.1 31.3 25 63.9 32.5 97.1 7.5 33.2 11.3 67.1 11.3 101.1z"/>
    <circle cx="420.9" cy="296.5" r="45.7"/>
  </g>
</svg>
